<?xml version="1.0" encoding="UTF-8" standalone="no"?>
<svg
   xmlns:dc="http://purl.org/dc/elements/1.1/"
   xmlns:cc="http://creativecommons.org/ns#"
   xmlns:rdf="http://www.w3.org/1999/02/22-rdf-syntax-ns#"
   xmlns:svg="http://www.w3.org/2000/svg"
   xmlns="http://www.w3.org/2000/svg"
   xmlns:sodipodi="http://sodipodi.sourceforge.net/DTD/sodipodi-0.dtd"
   xmlns:inkscape="http://www.inkscape.org/namespaces/inkscape"
   version="1.0"
   width="20.396168"
   height="30.284204"
   viewBox="0 0 15.297127 22.713157"
   preserveAspectRatio="xMidYMid meet"
   id="svg14"
   sodipodi:docname="soldado.svg"
   inkscape:version="0.92.2 (5c3e80d, 2017-08-06)">
  <metadata
     id="metadata20">
    <rdf:RDF>
      <cc:Work
         rdf:about="">
        <dc:format>image/svg+xml</dc:format>
        <dc:type
           rdf:resource="http://purl.org/dc/dcmitype/StillImage" />
        <dc:title></dc:title>
      </cc:Work>
    </rdf:RDF>
  </metadata>
  <defs
     id="defs18" />
  <sodipodi:namedview
     pagecolor="#ffffff"
     bordercolor="#666666"
     borderopacity="1"
     objecttolerance="10"
     gridtolerance="10"
     guidetolerance="10"
     inkscape:pageopacity="0"
     inkscape:pageshadow="2"
     inkscape:window-width="1920"
     inkscape:window-height="1015"
     id="namedview16"
     showgrid="false"
     inkscape:zoom="7.6367533"
     inkscape:cx="26.887371"
     inkscape:cy="-21.513391"
     inkscape:window-x="0"
     inkscape:window-y="0"
     inkscape:window-maximized="1"
     inkscape:current-layer="g12"
     units="px"
     fit-margin-top="0"
     fit-margin-left="0"
     fit-margin-right="0"
     fit-margin-bottom="0" />
  <g
     transform="matrix(0.1,0,0,-0.1,-0.05478211,151.19446)"
     id="g12"
     style="fill:#006600;stroke:none">
    <path
       d="m 39.178757,1495.6202 c -0.275297,-0.2294 -2.29421,-1.0095 -4.542538,-1.7436 -5.093155,-1.6519 -5.32257,-2.0189 -4.26724,-6.9744 0.412964,-1.9731 0.780034,-5.0014 0.780034,-6.7909 0,-1.8354 0.32119,-4.1296 0.688259,-5.1849 0.734155,-2.1107 0.780034,-2.0648 -2.156553,-2.5695 -2.294208,-0.3671 -5.87319,-2.4319 -5.87319,-3.3496 0,-0.7342 -2.569518,-2.8448 -3.395433,-2.8448 -0.229415,0 -0.963569,-0.5047 -1.743603,-1.1471 -0.734154,-0.6424 -1.651829,-1.1471 -1.973019,-1.1471 -0.321189,0 -1.055343,-0.5507 -1.605948,-1.2389 -0.917689,-1.1471 -0.963569,-1.606 -0.64238,-5.139 0.275296,-3.7626 0.275296,-3.9002 -0.825928,-4.8179 -1.69771,-1.4224 -5.4143314,-6.1026 -5.4143314,-6.8826 0,-0.3671 0.6423795,-1.193 1.4223993,-1.8354 l 1.3765341,-1.193 -0.917689,-1.193 c -0.9635697,-1.193 -1.2847593,-2.9366 -0.64238,-3.579 0.1835349,-0.1376 0.3670843,-1.1929 0.4129645,-2.3401 0.1376547,-2.3859 1.1471045,-4.4507 2.6612925,-5.5978 l 1.10121,-0.8259 -1.927139,-0.6883 c -1.6977088,-0.6424 -1.9271384,-0.9177 -2.5236233,-2.9825 -0.8718088,-3.3037 -0.5964991,-9.2227 0.7341399,-15.6007 1.8353784,-8.8097 3.3036724,-11.0122 7.8462084,-11.5628 2.340103,-0.2753 2.385983,-0.2753 2.385983,-1.8354 0,-1.3765 0.137655,-1.56 0.917689,-1.2847 0.825915,0.2753 0.91769,0.092 0.91769,-1.4683 0,-0.9636 0.183534,-2.4778 0.458844,-3.3496 0.504725,-1.7436 0.229415,-2.1106 -1.973033,-2.6154 -1.147105,-0.2294 -1.284759,-0.4129 -1.05533,-1.4683 0.13764,-0.6423 0.45883,-2.9366 0.73414,-5.0472 0.275309,-2.1107 0.688274,-4.1755 0.917689,-4.6343 0.5965,-1.1013 0.5965,-10.8287 0,-11.9299 -0.32119,-0.6424 -0.137655,-1.4225 0.825915,-3.3037 1.147104,-2.2025 1.514188,-2.5236 4.129586,-3.5331 2.707173,-1.0553 2.844828,-1.193 2.844828,-2.6613 0,-1.3306 -0.367085,-1.7436 -3.211898,-3.8543 -3.395446,-2.4318 -4.588431,-4.0837 -4.588431,-6.2402 0,-0.6883 -0.32119,-1.6519 -0.68826,-2.1566 -0.367084,-0.4588 -1.101224,-2.2483 -1.605948,-3.9919 -0.825929,-2.5695 -0.871809,-3.3955 -0.458845,-4.9555 0.275295,-1.0095 0.64238,-1.9272 0.825914,-2.0648 1.147105,-0.6883 -0.458844,-10.5075 -2.248328,-13.5818 -2.523637,-4.359 -3.074242,-5.8731 -3.395432,-9.911 -0.32119,-4.1754 -0.32119,-4.1754 0.917675,-5.139 0.688274,-0.5506 1.605948,-1.6518 2.018913,-2.4777 1.101224,-2.2484 3.395432,-3.1661 8.672123,-3.4414 2.431863,-0.092 5.276691,-0.046 6.286154,0.1836 1.789483,0.4129 1.835364,0.4588 2.248327,2.7989 l 0.412953,2.386 -2.569519,2.7072 c -1.881259,1.973 -2.615398,3.1201 -2.844828,4.4507 -0.183535,0.9636 -0.504724,2.3401 -0.780034,3.0284 -0.275295,0.78 -0.275295,1.5142 0,2.0648 0.229429,0.4588 0.32119,1.4683 0.229429,2.2483 -0.137654,0.8259 0,1.606 0.27531,1.7436 0.275295,0.1836 0.504725,1.1012 0.504725,2.0648 0,1.973 1.330639,3.2578 3.441312,3.2578 0.963568,0 1.147105,0.1835 1.147105,1.4683 0,0.78 0.321189,1.7895 0.688274,2.2024 0.367068,0.413 1.284757,1.8354 2.018899,3.166 0.871808,1.606 1.927136,2.799 3.074255,3.4414 2.385983,1.3306 4.909606,4.7719 6.836745,9.3604 1.743605,4.1295 2.018913,6.6532 0.917689,8.2132 -0.550605,0.7801 -0.642378,1.8813 -0.458844,4.8179 0.137655,2.2024 0,4.7261 -0.32119,6.0108 -0.412949,1.6519 -0.412949,2.2943 0,2.7072 0.32119,0.3212 0.550619,1.6977 0.550619,3.1201 0,1.4225 0.321189,3.7626 0.68826,5.185 0.367071,1.4683 0.68826,3.6248 0.68826,4.8178 0,1.193 0.229429,2.4778 0.458845,2.8448 0.412963,0.5965 0.550619,0.5506 1.009463,-0.1835 1.651829,-2.8907 12.709934,-14.0406 13.857039,-14.0406 0.321189,0 0.963568,-0.4129 1.422413,-0.9177 0.458844,-0.5047 1.514189,-1.1471 2.340102,-1.4683 0.963571,-0.3212 1.560071,-0.8718 1.560071,-1.3306 0,-0.4589 0.642378,-1.2389 1.376517,-1.7895 0.780035,-0.5506 1.376534,-1.3306 1.33064,-1.7895 -0.183535,-2.1566 0.137655,-3.3954 1.238878,-4.4049 1.147105,-1.0553 1.193,-1.2389 0.871808,-4.359 -0.229429,-2.1107 -0.183534,-3.2119 0.137655,-3.2119 0.32119,0 0.504727,-1.7436 0.458832,-4.6802 0,-5.4602 1.055344,-10.2781 3.624862,-16.4265 2.110673,-5.0014 2.615397,-5.4603 5.230809,-4.3591 0.5965,0.2295 0.91769,-0.092 1.284758,-1.2847 0.27531,-0.8718 1.055331,-2.0648 1.651831,-2.6154 0.642379,-0.5965 1.147102,-1.4683 1.147102,-1.9272 0,-0.4588 0.229429,-0.8259 0.458845,-0.8259 0.275311,0 0.458845,-0.8259 0.458845,-1.8353 0,-1.0554 0.27531,-2.4319 0.642378,-3.1202 0.321192,-0.6882 0.734156,-2.6613 0.91769,-4.4507 0.183537,-1.7436 0.504726,-4.0379 0.780034,-5.0473 0.596486,-2.386 3.166018,-8.9016 3.624849,-9.1769 0.458844,-0.2753 6.102615,1.4224 8.029755,2.386 2.43187,1.2389 3.44131,2.4319 3.16601,3.8084 -0.2753,1.193 -0.18354,1.2389 2.01891,1.5142 3.12013,0.3671 6.37791,2.1107 8.76389,4.6802 2.29421,2.4777 3.25778,4.5884 3.25778,7.0203 0,1.56 -0.22941,2.0189 -1.69771,3.1201 -2.66129,2.0189 -6.60734,1.5142 -9.0392,-1.1471 -0.64238,-0.7341 -1.42242,-0.9636 -3.07425,-0.9636 -1.193,0 -2.3401,0.2295 -2.47775,0.4589 -0.13765,0.2753 -0.96357,0.4588 -1.74361,0.4588 -0.82591,0.046 -1.973016,0.413 -2.523621,0.9177 -0.963568,0.78 -1.101223,1.2848 -1.101223,4.0837 0,2.2942 -0.229429,3.7166 -0.871808,4.9555 -1.101226,2.1107 -1.514176,6.8368 -0.871795,9.3604 0.41295,1.4683 0.367069,2.0648 -0.183536,3.0742 -0.412964,0.6883 -1.009463,3.1661 -1.376534,5.5061 -0.367069,2.386 -1.009447,4.8179 -1.468292,5.4603 -1.00945,1.56 -1.147105,4.9096 -0.275311,7.6168 1.789484,5.8273 -1.28476,15.6465 -5.68964,18.0325 -1.193,0.6424 -1.468308,1.0553 -1.284758,1.7895 0.183534,0.6882 -0.18355,1.3306 -1.147121,2.2024 -1.192984,1.0553 -1.422399,1.606 -1.422399,3.3496 0,1.4224 -0.367082,2.753 -1.192997,4.1296 -0.734156,1.1929 -1.101224,2.4318 -0.963569,2.9824 0.183535,0.6424 -0.550605,2.2025 -2.294209,4.8179 -1.376534,2.1565 -2.661292,4.4507 -2.844826,5.139 -0.275311,0.9636 -0.734155,1.2848 -2.248329,1.606 -1.789483,0.367 -2.064794,0.5964 -3.349551,3.2119 -0.825916,1.56 -2.385984,4.4966 -3.533089,6.4696 l -2.064792,3.6708 0.458842,6.1943 c 0.412953,5.552 0.688261,6.8368 2.477744,11.8841 1.789484,4.9555 1.927139,5.7355 1.330656,6.1944 -1.330656,1.0094 -2.753068,3.2119 -2.753068,4.1295 0,0.8718 0.09177,0.8718 1.284757,-0.2753 0.688274,-0.6882 1.60595,-1.2388 2.018913,-1.2388 0.917689,0 1.60595,-0.826 1.97302,-2.4319 0.229429,-0.8718 1.284758,-1.9271 3.257792,-3.3496 1.560055,-1.1471 3.028362,-2.4777 3.166002,-2.9824 0.18355,-0.4589 0.688273,-1.1012 1.192999,-1.3307 0.504724,-0.2753 0.871795,-0.9635 0.871795,-1.6059 0,-0.8718 0.458844,-1.3765 2.248328,-2.2942 4.267241,-2.1566 7.020293,-1.9272 10.048656,0.8718 1.927139,1.6977 2.385983,3.2119 2.385983,7.4791 0,4.0837 -0.412949,5.552 -1.330639,5.0014 -0.27531,-0.1836 -0.504726,-0.046 -0.504726,0.3671 0,0.367 0.229416,0.7341 0.550605,0.8259 0.734155,0.2753 -1.284757,3.6707 -4.31312,7.3415 l -2.340089,2.7989 0.504724,2.6154 c 0.321189,1.4224 0.550605,3.2578 0.550605,4.0378 v 1.4683 h 16.655981 c 16.10538,0 16.656,0.046 17.29838,0.9177 0.41295,0.5506 1.19299,0.9177 1.97302,0.9177 0.91769,0 1.37653,-0.2753 1.56007,-0.9177 0.2753,-0.9636 0.91769,-1.1471 1.92714,-0.5047 0.36707,0.2294 0.45884,0.6424 0.27531,1.0094 -0.32119,0.4589 1.46829,0.5047 9.08507,0.2753 l 9.49805,-0.3212 v 1.1471 c 0,1.3307 0.41295,1.2848 -11.33341,1.1471 l -7.93799,-0.092 v 3.2578 c 0,4.3131 -0.78003,4.726 -3.39543,1.7895 l -1.88126,-2.0648 -7.5709,0.4129 c -20.739685,1.0554 -27.301133,1.193 -27.897633,0.5965 -0.963571,-0.9177 -2.844815,-0.3212 -2.844815,0.9177 0,2.4319 -1.009463,2.8448 -9.956895,3.9461 -8.121517,1.0094 -8.396814,1.0094 -9.314503,0.1835 -0.917687,-0.8259 -0.963569,-0.8259 -2.202447,0.3671 -0.734139,0.6882 -1.743602,1.2388 -2.294207,1.2388 -1.881261,0 -1.101227,1.5142 1.422412,2.7531 1.330639,0.6424 2.431863,1.5142 2.523623,1.9271 0.09178,0.4589 -0.78002,1.4683 -2.294207,2.6613 -3.074244,2.4319 -3.946052,3.8084 -3.991933,6.5615 -0.04588,1.5142 -0.32119,2.4318 -0.963568,3.0742 -0.504724,0.5047 -0.91769,1.3307 -0.91769,1.8354 0,1.3306 -1.743602,2.2483 -7.203827,3.7166 -5.001383,1.3306 -7.846209,1.6518 -8.626243,0.9636 z m 41.525264,-27.1176 c 0.825913,-0.2295 1.147102,-0.6424 1.147102,-1.4224 v -1.1471 h -6.882637 c -5.964951,0 -6.882641,0.092 -7.020293,0.7341 -0.09176,0.413 0.183534,1.1012 0.596497,1.5142 0.5965,0.5965 1.743605,0.7341 5.873191,0.6882 2.844828,-0.046 5.643759,-0.1835 6.28614,-0.367 z m 44.966569,-4.6802 c 0,-0.2294 -0.82591,-0.413 -1.83536,-0.413 -1.00945,0 -1.83536,0.1377 -1.83536,0.3212 0,0.1835 0.5506,0.8718 1.23886,1.606 l 1.193,1.2388 0.64238,-1.1471 c 0.32119,-0.6882 0.59648,-1.3765 0.59648,-1.6059 z m -1.23886,-1.6519 c -0.32119,-0.092 -0.96357,-0.092 -1.37653,0 -0.45885,0.1377 -0.18354,0.2295 0.55062,0.2295 0.78001,0 1.10121,-0.092 0.82591,-0.2295 z"
       id="path8"
       inkscape:connector-curvature="0"
       style="stroke:#eaeb62;stroke-width:15.29250145;stroke-miterlimit:4;stroke-dasharray:none;stroke-dashoffset:0;stroke-opacity:1;paint-order:markers stroke fill" />
  </g>
</svg>
